<svg width="20" height="20" viewBox="0 0 20 20" fill="none" xmlns="http://www.w3.org/2000/svg">
<path fill-rule="evenodd" clip-rule="evenodd" d="M15.8333 1.66663H4.16667C3.24619 1.66663 2.5 2.41282 2.5 3.33329V11.6666C2.5 12.5871 3.24619 13.3333 4.16667 13.3333H5.83333V17.8333L7.25 16.4166L10.3333 13.3333H15.8333C16.7538 13.3333 17.5 12.5871 17.5 11.6666V3.33329C17.5 2.41282 16.7538 1.66663 15.8333 1.66663ZM16.6667 11.6666C16.6938 11.8949 16.6148 12.123 16.4522 12.2855C16.2897 12.4481 16.0616 12.5271 15.8333 12.5H10L6.66667 15.8333V12.5H4.16667C3.9384 12.5271 3.7103 12.4481 3.54775 12.2855C3.38521 12.123 3.30618 11.8949 3.33333 11.6666V3.33329C3.30618 3.10503 3.38521 2.87692 3.54775 2.71438C3.7103 2.55184 3.9384 2.47281 4.16667 2.49996H15.8333C16.0616 2.47281 16.2897 2.55184 16.4522 2.71438C16.6148 2.87692 16.6938 3.10503 16.6667 3.33329V11.6666ZM10 8.33329C10.4602 8.33329 10.8333 7.9602 10.8333 7.49996C10.8333 7.03972 10.4602 6.66663 10 6.66663C9.53976 6.66663 9.16667 7.03972 9.16667 7.49996C9.16667 7.9602 9.53976 8.33329 10 8.33329ZM7.5 7.49996C7.5 7.9602 7.1269 8.33329 6.66667 8.33329C6.20643 8.33329 5.83333 7.9602 5.83333 7.49996C5.83333 7.03972 6.20643 6.66663 6.66667 6.66663C7.1269 6.66663 7.5 7.03972 7.5 7.49996ZM13.3333 8.33329C13.7936 8.33329 14.1667 7.9602 14.1667 7.49996C14.1667 7.03972 13.7936 6.66663 13.3333 6.66663C12.8731 6.66663 12.5 7.03972 12.5 7.49996C12.5 7.9602 12.8731 8.33329 13.3333 8.33329Z" fill="#5C6F82" stroke="#5C6F82" stroke-width="0.5"/>
</svg>
