<svg width="20" height="20" viewBox="0 0 20 20" fill="none" xmlns="http://www.w3.org/2000/svg">
<path fill-rule="evenodd" clip-rule="evenodd" d="M10.0002 10.8333C11.8411 10.8333 13.3335 9.34091 13.3335 7.49996V4.99996C13.3335 3.15901 11.8411 1.66663 10.0002 1.66663C8.15921 1.66663 6.66683 3.15901 6.66683 4.99996V7.49996C6.66683 9.34091 8.15921 10.8333 10.0002 10.8333ZM7.50016 4.99996C7.50016 3.61925 8.61945 2.49996 10.0002 2.49996C11.3809 2.49996 12.5002 3.61925 12.5002 4.99996V7.49996C12.5002 8.88067 11.3809 9.99996 10.0002 9.99996C8.61945 9.99996 7.50016 8.88067 7.50016 7.49996V4.99996ZM15.8335 18.3333H16.6668C16.6668 14.6514 13.6821 11.6666 10.0002 11.6666C6.31826 11.6666 3.3335 14.6514 3.3335 18.3333H4.16683C4.16683 15.1116 6.7785 12.5 10.0002 12.5C13.2218 12.5 15.8335 15.1116 15.8335 18.3333Z" fill="#5C6F82" stroke="#5C6F82" stroke-width="0.5"/>
</svg>
