<svg width="76" height="72" viewBox="0 0 76 72" fill="none"
     xmlns="http://www.w3.org/2000/svg">
    <path d="M36.4421 0.127652C38.7635 -0.431871 41.3362 0.898316 42.1832 3.13219C42.914 4.93744 42.4852 7.15653 41.0764 8.51416C39.7879 9.83802 37.7285 10.3194 35.9838 9.71133C33.7976 9.0209 32.3064 6.67724 32.6275 4.40325C32.8302 2.35941 34.4461 0.581605 36.4421 0.127652Z"
          fill="#EA9400"/>
    <path d="M7.54699 14.2826C12.893 7.39728 20.7421 2.60649 29.2311 0.710449C29.531 2.81552 29.738 4.93326 30.0464 7.03623C23.4647 8.67257 17.4153 12.4604 13.2056 17.7917C9.49235 22.3988 7.23438 28.144 6.78447 34.0411C4.52228 34.0411 2.26219 34.0454 0 34.039C0.413996 26.8856 3.11342 19.9053 7.54699 14.2826Z"
          fill="white"/>
    <path d="M45.5797 0.655518C52.8204 2.19685 59.6239 5.8348 64.8094 11.1323C70.8483 17.2026 74.6461 25.4815 75.1319 34.0432C72.8697 34.0411 70.6075 34.0432 68.3453 34.0411C67.9123 28.4036 65.8338 22.9013 62.3994 18.404C58.1284 12.7159 51.8087 8.63875 44.8911 7.0003C45.1256 4.88678 45.3896 2.77537 45.5797 0.655518Z"
          fill="white"/>
    <path d="M19.6562 17.2998C22.7654 14.5021 26.5463 12.4456 30.5955 11.3878C30.87 13.4633 31.0665 15.5494 31.3812 17.6186C26.785 19.0586 22.7401 22.2067 20.2646 26.3429C18.0847 29.9112 17.168 34.2079 17.6306 38.3589C18.3129 45.1366 22.9344 51.2639 29.1465 53.9918C29.1507 56.2193 29.1465 58.4469 29.1486 60.6765C23.4751 58.8164 18.4523 55.0011 15.2206 49.9738C13.3998 47.1677 12.1452 43.9943 11.5516 40.7026C11.1271 38.5426 11.1587 36.3257 11.2475 34.1361C11.7438 27.7196 14.8636 21.5796 19.6562 17.2998Z"
          fill="white"/>
    <path d="M44.4453 11.3519C50.2096 12.8679 55.4584 16.356 58.9859 21.1721C61.5755 24.6454 63.2293 28.7943 63.7891 33.0868C64.1756 36.8746 63.9074 40.766 62.6231 44.3701C60.0568 52.0768 53.5828 58.2463 45.8732 60.7145C45.8689 58.4891 45.8605 56.2616 45.8774 54.0362C50.161 52.1612 53.7328 48.7112 55.7499 44.4947C57.7544 40.3331 58.1558 35.4368 56.8884 30.9986C55.1437 24.7108 50.0026 19.5463 43.7778 17.6397C44.006 15.5452 44.1918 13.4443 44.4453 11.3519Z"
          fill="white"/>
    <path d="M21.6421 37.8374C26.8551 29.9027 32.0786 21.9744 37.3021 14.0439C42.6947 21.9765 48.1041 29.8985 53.4839 37.8374C49.4326 37.8522 45.3835 37.8332 41.3323 37.848C41.3365 49.2306 41.3323 60.6132 41.3344 71.9958C38.7575 71.9894 36.1784 72 33.5994 71.9915C33.5994 60.6132 33.5973 49.2369 33.6015 37.8606C29.6157 37.8142 25.6279 37.8627 21.6421 37.8374Z"
          fill="white"/>
    <path d="M0.236328 37.8227C2.49641 37.8142 4.75438 37.8185 7.01446 37.8206C7.35242 43.9352 9.60616 49.9211 13.4061 54.7245C17.4277 59.87 23.1244 63.6938 29.4315 65.4103C29.4463 67.5851 29.4379 69.7598 29.4357 71.9346C22.4232 70.427 15.8837 66.8186 10.8291 61.7323C4.50936 55.4339 0.57006 46.7582 0.236328 37.8227Z"
          fill="white"/>
    <path d="M68.1109 37.8184C70.371 37.8163 72.6332 37.8184 74.8932 37.8184C74.6567 43.6924 73.0408 49.5199 70.1217 54.6316C67.8891 58.5673 64.8961 62.0764 61.3412 64.8825C56.7957 68.5056 51.3335 70.9295 45.6283 72C45.5417 69.8401 45.6262 67.6801 45.6157 65.5201C51.644 64.1583 57.197 60.7673 61.1448 56.0103C65.403 50.9345 67.7645 44.4081 68.1109 37.8184Z"
          fill="white"/>
</svg>