<svg xmlns="http://www.w3.org/2000/svg" width="97.611" height="31.186" viewBox="0 0 97.611 31.186">
    <defs>
        <style>.a{fill:#292929;}</style>
    </defs>
    <g transform="translate(306.568 -10.123)">
        <path class="a"
              d="M89.018,21.134a3.322,3.322,0,0,0-2.16-.985c-.831,0-1.5.41-1.5,1.067,0,1.723,3.988,1.723,3.988,4.678a2.408,2.408,0,0,1-2.575,2.462,4.024,4.024,0,0,1-2.575-.821V25.894a3.293,3.293,0,0,0,2.492,1.313,1.342,1.342,0,0,0,1.5-1.149c0-1.888-3.988-2.134-3.988-4.6C84.2,19.985,85.28,19,87.024,19a3.876,3.876,0,0,1,2.077.657v1.477Z"
              transform="translate(-346.656 -6.743)"/>
        <path class="a" d="M97.434,20.331h-3.9v2.79h3.821V24.27H93.529v2.872H97.6v1.149H92.2V19.1h5.234v1.231Z"
              transform="translate(-348.01 -6.761)"/>
        <path class="a"
              d="M108.207,21.116a6.419,6.419,0,0,0-3.24-.985,3.518,3.518,0,0,0-3.738,3.529,3.411,3.411,0,0,0,3.738,3.447,5.646,5.646,0,0,0,3.24-1.067v1.477a6.606,6.606,0,0,1-3.323.821,4.682,4.682,0,0,1-4.984-4.6,4.821,4.821,0,0,1,5.067-4.842,8.666,8.666,0,0,1,3.157.739v1.477Z"
              transform="translate(-349.314 -6.725)"/>
        <path class="a"
              d="M116.484,19a4.669,4.669,0,0,1,4.984,4.678A4.994,4.994,0,1,1,116.484,19Zm0,8.207a3.531,3.531,0,1,0,0-7.058,3.529,3.529,0,1,0,0,7.058Z"
              transform="translate(-351.277 -6.743)"/>
        <path class="a" d="M134.04,28.292h-1.163l-6.23-7.058v7.058H125.4V19.1h1.08l6.314,7.14V19.1h1.246v9.192Z"
              transform="translate(-353.63 -6.761)"/>
        <path class="a"
              d="M138.3,19.1h3.572a4.608,4.608,0,1,1,.083,9.192H138.3V19.1Zm1.329,8.043h2.16a3.436,3.436,0,0,0,3.738-3.365c0-1.806-1.163-3.365-3.821-3.365h-2.077Z"
              transform="translate(-355.814 -6.761)"/>
        <path class="a"
              d="M97.739,38.511a10.048,10.048,0,0,0-5.4-1.641,6.005,6.005,0,0,0-6.314,5.909c0,3.447,2.575,5.909,6.4,5.909a10.231,10.231,0,0,0,5.483-1.723v2.462a11.55,11.55,0,0,1-5.732,1.4c-5.9,0-8.473-4.514-8.473-7.715,0-4.76,3.655-8.207,8.64-8.207a13.9,13.9,0,0,1,5.4,1.313Z"
              transform="translate(-346.571 -9.594)"/>
        <path class="a" d="M117.492,50.693h-2.243v-6.73h-8.806v6.73H104.2V35.1h2.243v6.73h8.806V35.1h2.243Z"
              transform="translate(-350.041 -9.63)"/>
        <path class="a" d="M133.289,37.152h-6.646V41.83h6.4V43.8h-6.4v4.842h6.9v1.97H124.4V35.1h8.889Z"
              transform="translate(-353.461 -9.63)"/>
        <path class="a" d="M146.69,37.152h-6.147v4.268h6.147v1.97h-6.147v7.222H138.3V35.1h8.39v2.052Z"
              transform="translate(-355.814 -9.63)"/>
        <path class="a"
              d="M52.283,45.966a9.574,9.574,0,0,1-8.307-4.678,1.022,1.022,0,0,1,.332-1.313,1.05,1.05,0,0,1,1.329.328,7.737,7.737,0,0,0,13.292,0,1.026,1.026,0,0,1,1.329-.328,1,1,0,0,1,.332,1.313A9.753,9.753,0,0,1,52.283,45.966Z"
              transform="translate(-339.827 -10.483)"/>
        <path class="a"
              d="M62.086,47.586H38.161V36.261a7.927,7.927,0,0,1-4.818-2.544A8.044,8.044,0,0,1,31.1,28.136,8.224,8.224,0,0,1,42.73,20.75a8.188,8.188,0,0,1,7.31-4.35,8.347,8.347,0,0,1,7.31,4.35,8.224,8.224,0,0,1,11.63,7.386,7.969,7.969,0,0,1-2.243,5.581,8.373,8.373,0,0,1-4.818,2.544V47.586ZM39.407,46.355H60.84V35.112l.582-.082a6.917,6.917,0,0,0,4.569-2.216,6.663,6.663,0,0,0,1.828-4.678,6.957,6.957,0,0,0-10.384-5.991l-.582.328-.249-.657a7.01,7.01,0,0,0-6.48-4.186,7.1,7.1,0,0,0-6.48,4.186l-.249.657-.582-.328a6.957,6.957,0,0,0-10.384,5.991,6.922,6.922,0,0,0,6.4,6.894l.582.082V46.355Z"
              transform="translate(-337.668 -6.277)"/>
    </g>
</svg>